<?xml version="1.0" encoding="UTF-8"?>
<svg version="1.1" xmlns="http://www.w3.org/2000/svg" width="512" height="512">
<path d="M0 0 C110.55 0 221.1 0 335 0 C335 73.92 335 147.84 335 224 C315.53 224 296.06 224 276 224 C274.02 215.75 272.04 207.5 270 199 C258.29270459 168.29596109 237.32971092 146.54991608 207.4375 132.875 C205.96279642 132.23954081 204.48556801 131.60962834 203 131 C204.35980987 127.95375927 205.9140797 125.92472571 208.25 123.5625 C217.56263523 113.14168062 220.49426219 100.13096094 220.24609375 86.5546875 C219.22802396 71.84923492 212.60712628 60.04164135 202 50 C191.49961621 41.25805369 178.64819608 36.32367243 164.890625 36.69140625 C149.05266371 38.38221563 135.22864939 44.43056354 125 57 C116.06790188 69.31707975 112.08872136 83.91629623 114.47265625 98.98828125 C117.05322972 110.9021863 122.43702046 120.39355356 131 129 C130.67 129.99 130.34 130.98 130 132 C127.2265625 133.359375 127.2265625 133.359375 123.625 134.75 C113.68295472 138.77802395 105.40477335 144.41346024 97.19140625 151.30078125 C95 153 95 153 92.83984375 153.98046875 C90.48678235 155.28439449 90.10315491 156.5922843 89 159 C87.58984375 160.4296875 87.58984375 160.4296875 85.9375 161.875 C70.91932784 176.51849842 62.14337873 199.30760014 59.359375 219.7421875 C59 222 59 222 58 224 C38.86 224 19.72 224 0 224 C0 150.08 0 76.16 0 0 Z " fill="#000000" transform="translate(89,116)"/>
<path d="M0 0 C1.54418493 -0.00461489 3.08836546 -0.01097174 4.63253689 -0.01890898 C8.85494665 -0.03554483 13.07699292 -0.02738226 17.29940367 -0.0149641 C21.86117687 -0.00589231 26.42288874 -0.01989388 30.98464966 -0.03088379 C39.91288756 -0.04865089 48.8409908 -0.04483709 57.76923394 -0.03323323 C65.02673969 -0.02419206 72.28420776 -0.02297786 79.54171753 -0.02732849 C81.09233199 -0.02824789 81.09233199 -0.02824789 82.674272 -0.02918586 C84.77443736 -0.03046479 86.87460271 -0.03176164 88.97476804 -0.03307623 C108.65842601 -0.04447673 128.34200941 -0.03137663 148.02565515 -0.00987476 C164.90752163 0.00799573 181.78927808 0.00489147 198.67114258 -0.0135498 C218.28536445 -0.03496586 237.899521 -0.04337814 257.51375294 -0.03110075 C259.60610262 -0.02982658 261.6984523 -0.0285691 263.790802 -0.02732849 C264.82022224 -0.02671139 265.84964249 -0.02609429 266.91025728 -0.02545848 C274.15729972 -0.0220078 281.40430066 -0.02782788 288.65133667 -0.0372467 C297.48557053 -0.04847622 306.31966226 -0.04540656 315.15387988 -0.02412373 C319.65946063 -0.01362617 324.16480457 -0.00946938 328.67038345 -0.02272034 C332.7983499 -0.03467694 336.92586101 -0.02802819 341.0537864 -0.00681013 C342.54355679 -0.00235786 344.03336598 -0.00457932 345.52311122 -0.01431328 C357.17093193 -0.08455624 366.27731937 1.39495076 374.91235352 9.59387207 C383.24280437 18.68500998 383.97095113 28.48434088 383.9067688 40.40992737 C383.90933685 42.16296425 383.90933685 42.16296425 383.91195679 43.95141602 C383.91467891 47.17925016 383.90845288 50.40692166 383.89840522 53.63473661 C383.88963698 57.17501824 383.89259674 60.71529424 383.89404106 64.25558376 C383.89510201 71.11982558 383.8858905 77.98401484 383.8730384 84.84824317 C383.85861105 92.79238859 383.85704741 100.73650266 383.85546875 108.68066406 C383.84497769 129.6439292 383.81705535 150.60718268 383.79125977 171.57043457 C383.75000977 218.40980957 383.70875977 265.24918457 383.66625977 313.50793457 C243.74625977 313.50793457 103.82625977 313.50793457 -40.33374023 313.50793457 C-40.37499023 266.66855957 -40.41624023 219.82918457 -40.45874023 171.57043457 C-40.47694824 156.7733667 -40.49515625 141.97629883 -40.51391602 126.73083496 C-40.52294922 108.68066406 -40.52294922 108.68066406 -40.52462769 100.23423767 C-40.52649317 94.327117 -40.53383131 88.42003414 -40.54489136 82.51292419 C-40.55763073 75.69881219 -40.56341007 68.88473646 -40.56063014 62.07061246 C-40.55942637 58.58562296 -40.56132235 55.10071453 -40.5721705 51.61573994 C-40.58211491 47.88040301 -40.57972123 44.14526893 -40.57424927 40.40992737 C-40.5800746 39.32753501 -40.58589993 38.24514265 -40.59190178 37.12995052 C-40.54661402 25.63098971 -38.59543465 17.39732941 -30.73608398 8.75012207 C-21.87790357 0.41547478 -11.62919804 -0.07598494 0 0 Z M-14.33374023 30.50793457 C-15.25206416 33.26290636 -15.46042952 34.88291399 -15.465168 37.72060204 C-15.46900914 38.58389039 -15.47285029 39.44717875 -15.47680783 40.33662736 C-15.47594135 41.28554247 -15.47507487 42.23445758 -15.47418213 43.21212769 C-15.47715325 44.21980056 -15.48012437 45.22747344 -15.48318553 46.26568186 C-15.49188979 49.65812727 -15.49338223 53.05053746 -15.49487305 56.44299316 C-15.49949995 58.86879044 -15.50452443 61.29458699 -15.50991821 63.72038269 C-15.52305535 70.32156907 -15.5295261 76.92274812 -15.53392887 83.52394438 C-15.53669099 87.64490736 -15.54092826 91.76586799 -15.54543304 95.88682938 C-15.55762514 107.29444163 -15.56792495 118.70205201 -15.57130814 130.10967064 C-15.5715277 130.83980745 -15.57174727 131.56994425 -15.57197349 132.32220642 C-15.57219177 133.05409697 -15.57241004 133.78598753 -15.57263494 134.54005659 C-15.5730784 136.02316435 -15.57352497 137.50627212 -15.57397461 138.98937988 C-15.57419604 139.72505367 -15.57441747 140.46072747 -15.57464561 141.2186944 C-15.57859471 153.14266212 -15.59605241 165.06656877 -15.61933413 176.99051289 C-15.64303891 189.22979876 -15.65550957 201.46905397 -15.65667605 213.70836318 C-15.65759325 220.58147166 -15.66335675 227.45450055 -15.68149567 234.32758713 C-15.69849182 240.7904625 -15.70015582 247.25322698 -15.69135666 253.71611977 C-15.69058367 256.09093569 -15.6949632 258.46575958 -15.70481491 260.84055519 C-15.71745657 264.07714377 -15.71169982 267.31318995 -15.70123291 270.54977417 C-15.70928931 271.49422783 -15.71734572 272.4386815 -15.72564626 273.41175497 C-15.68915705 278.22082394 -15.62359779 281.71144744 -12.33374023 285.50793457 C-8.49641729 288.27701395 -5.84222504 288.88334374 -1.14144897 288.88545799 C0.11247839 288.89328123 1.36640575 288.90110448 2.65833092 288.90916479 C4.04720564 288.90267882 5.43607906 288.89590886 6.82495117 288.8888855 C8.30238503 288.89234205 9.77981632 288.8971066 11.2572422 288.90306723 C15.31812589 288.91560729 19.37879845 288.90939324 23.43968296 288.90010858 C27.81875105 288.89333071 32.19778243 288.90379304 36.57684326 288.91204834 C45.15581885 288.92540137 53.73471578 288.92250095 62.31369448 288.91381042 C69.28484017 288.90704045 76.25596378 288.90611417 83.22711182 288.90938187 C84.21857008 288.90984157 85.21002834 288.91030126 86.23153079 288.91077489 C88.24554047 288.91173405 90.25955014 288.91270669 92.27355981 288.91369267 C111.16729737 288.92225116 130.06099129 288.91240523 148.95472169 288.89629157 C165.1730427 288.88288797 181.39129929 288.88521594 197.60961914 288.89904785 C216.43488056 288.91509555 235.26010371 288.92142714 254.08537102 288.91221106 C256.09204991 288.91125539 258.09872881 288.91031228 260.10540771 288.90938187 C261.09278069 288.90891904 262.08015367 288.90845621 263.09744704 288.90797936 C270.06173916 288.90538704 277.02600704 288.90976568 283.99029541 288.91682053 C292.4752626 288.92522673 300.9601465 288.92297394 309.44510412 288.90697829 C313.77582477 288.89908371 318.10640648 288.89602414 322.43712616 288.90592575 C326.39965802 288.91484865 330.36192181 288.90997971 334.32442927 288.89399309 C335.75975362 288.89063506 337.19510051 288.89236227 338.63041043 288.89962046 C340.57824761 288.90871675 342.526148 288.89761043 344.47396851 288.88545799 C345.55687857 288.88497094 346.63978863 288.88448388 347.75551414 288.88398206 C352.02202876 288.33277892 354.66259731 286.66717509 357.45495033 283.44197845 C359.22938358 279.14393134 359.07990523 275.17069097 359.04721069 270.56323242 C359.05189067 269.55385069 359.05657064 268.54446897 359.06139243 267.50449991 C359.07336997 264.11814183 359.06387418 260.73218637 359.05444336 257.3458252 C359.05850782 254.91973128 359.06384899 252.49363921 359.07037354 250.06755066 C359.0826451 244.15960931 359.08083222 238.25177273 359.07213561 232.34383428 C359.0653603 227.5423084 359.06444168 222.74081457 359.06770706 217.93928528 C359.06816676 217.25589212 359.06862646 216.57249895 359.06910009 215.86839691 C359.07005927 214.48009422 359.07103191 213.09179155 359.07201786 211.70348889 C359.08057238 198.68554237 359.07073668 185.66765923 359.05461676 172.64972311 C359.04121351 161.47986993 359.04354159 150.31011028 359.05737305 139.14025879 C359.07342779 126.16887862 359.0797484 113.19755401 359.07053626 100.22616529 C359.06958061 98.84297149 359.0686375 97.45977768 359.06770706 96.07658386 C359.06701282 95.05574876 359.06701282 95.05574876 359.06630456 94.01429072 C359.06371435 89.21856408 359.06808632 84.42287267 359.07514572 79.62715149 C359.08443833 73.17243823 359.07782173 66.71786015 359.06046295 60.26316261 C359.05648981 57.89157722 359.05764623 55.51997697 359.06425095 53.14839745 C359.07242359 49.91627486 359.06219618 46.68472276 359.04721069 43.45263672 C359.05390286 42.5095473 359.06059502 41.56645787 359.06748998 40.59478998 C359.02389133 35.76152249 358.89551186 32.37279934 355.66625977 28.50793457 C352.3479835 25.42333856 350.04503866 25.13128419 345.56857491 25.12482452 C344.3102885 25.11576788 343.05200209 25.10671124 341.75558579 25.09738016 C340.35659758 25.10248467 338.95761039 25.10787677 337.55862427 25.11352539 C336.07451537 25.10863806 334.59041027 25.10244899 333.10631168 25.0950675 C329.02230924 25.07862456 324.93849928 25.08099471 320.85447526 25.08644247 C316.45218409 25.08910733 312.04994486 25.0745911 307.64767456 25.06234741 C299.02077818 25.04126798 290.39394898 25.036754 281.7670299 25.0385353 C274.7562981 25.03984169 267.74558731 25.03604506 260.73485947 25.02861023 C258.71726096 25.02651109 256.69966245 25.02441349 254.68206394 25.02231741 C253.67792083 25.02127388 252.67377772 25.02023035 251.63920604 25.0191552 C232.63767068 25.00024261 213.63617392 25.00130612 194.63463305 25.00812453 C177.243924 25.01370045 159.85336225 24.99287427 142.46268763 24.95976406 C124.61510345 24.92604712 106.76758988 24.91085626 88.91997325 24.91548109 C78.8962315 24.91772784 68.87262588 24.91245265 58.84891129 24.8875885 C50.31523692 24.86660111 41.78177334 24.86295783 33.2480904 24.88188809 C28.89285503 24.89106191 24.53801293 24.89213896 20.18280792 24.87153244 C16.1965944 24.85288017 12.21109777 24.8572605 8.22491203 24.88007826 C6.78213392 24.88427867 5.33930146 24.88001563 3.89658071 24.86648232 C-6.49481945 24.56972862 -6.49481945 24.56972862 -14.33374023 30.50793457 Z " fill="#000000" transform="translate(84.333740234375,71.4920654296875)"/>
<path d="M0 0 C161.7 0 323.4 0 490 0 C490 11.27269672 488.85730196 18.84806515 481.05859375 27.0390625 C470.95487838 36.7034859 460.46525247 36.43694487 447.28089905 36.38768005 C445.46534297 36.39185554 443.6497895 36.39733424 441.83424085 36.40399987 C436.85713647 36.41844484 431.88019782 36.41421268 426.9030844 36.40683305 C421.53079719 36.40210139 416.15854584 36.4146112 410.78627014 36.42485046 C400.26639084 36.4420435 389.74657125 36.44287746 379.22668154 36.43763756 C370.67625054 36.43359575 362.12583718 36.43503955 353.57540703 36.44038582 C351.74982857 36.44150845 351.74982857 36.44150845 349.88736973 36.44265376 C347.41492085 36.44418524 344.94247197 36.44572359 342.47002309 36.44726873 C319.28599231 36.46099548 296.10199529 36.45555474 272.91796529 36.44408352 C251.70858625 36.43414985 230.49929444 36.44709385 209.28992886 36.47101771 C187.50972755 36.49540032 165.72956689 36.50501871 143.9493522 36.49836498 C131.72234876 36.49487105 119.4954124 36.49711644 107.26841927 36.51461601 C96.86046959 36.52932742 86.45263427 36.52998719 76.04468686 36.5125451 C70.73509018 36.50402427 65.42569786 36.50191217 60.11611176 36.51719666 C55.25351899 36.53102108 50.39130612 36.52630933 45.52873545 36.50695742 C43.77177334 36.50319025 42.01478096 36.50614001 40.25784577 36.51656907 C28.01327512 36.58407109 18.02497352 35.68724769 8.75390625 26.921875 C1.17397396 18.61602492 0 11.30640691 0 0 Z " fill="#000000" transform="translate(11,404)"/>
<path d="M0 0 C13.48176724 12.51037353 24.73170879 31.38563844 27.0390625 49.87890625 C27.0390625 51.85890625 27.0390625 53.83890625 27.0390625 55.87890625 C-31.7009375 55.87890625 -90.4409375 55.87890625 -150.9609375 55.87890625 C-148.8069279 32.18480062 -137.86434021 11.75209723 -119.8671875 -3.84375 C-83.52052941 -32.32506945 -34.175664 -30.53556079 0 0 Z " fill="#000000" transform="translate(317.9609375,284.12109375)"/>
<path d="M0 0 C8.39597506 5.21087406 13.81889364 12.21693531 16.6875 21.66796875 C18.66965953 31.00889552 17.73955494 39.96650465 13.20703125 48.43359375 C6.46479579 58.73980265 -1.39555842 62.98966622 -13.3125 65.66796875 C-21.28361959 67.08313129 -30.07500544 64.1020058 -36.9375 60.16015625 C-44.7053414 54.51797415 -49.98184697 46.95426298 -51.71484375 37.46484375 C-53.13754598 27.29811774 -51.32951488 18.0548565 -45.3125 9.66796875 C-34.41877591 -4.3093617 -15.76930637 -7.64897061 0 0 Z " fill="#000000" transform="translate(273.3125,175.33203125)"/>
</svg>
